<svg width="43" height="42" viewBox="0 0 43 42" fill="current" xmlns="http://www.w3.org/2000/svg">
<path fill-rule="evenodd" clip-rule="evenodd" d="M4.34 3.84C2.82 5.36 2.01999 7.32 1.62 10.08C1.22 12.88 1.22 16.4 1.22 21C1.22 25.5999 1.22 29.12 1.62 31.92C2.01999 34.68 2.82 36.6399 4.34 38.16C5.86 39.68 7.82 40.4799 10.58 40.88C13.38 41.28 16.8999 41.28 21.5 41.28C26.0999 41.28 29.62 41.28 32.42 40.88C35.18 40.4799 37.14 39.68 38.66 38.16C40.1799 36.6399 40.9799 34.68 41.38 31.92C41.78 29.12 41.78 25.5999 41.78 21C41.78 16.4 41.78 12.84 41.38 10.08C40.9799 7.32 40.1799 5.36 38.66 3.84C37.14 2.31999 35.18 1.52 32.42 1.12C29.62 0.72 26.0999 0.72 21.5 0.72C16.86 0.72 13.34 0.72 10.58 1.12C7.82 1.52 5.86 2.31999 4.34 3.84ZM39.14 3.32C42.5 6.68 42.5 11.76 42.5 21C42.5 30.24 42.5 35.3199 39.14 38.6799C35.78 42.0399 30.7 42 21.5 42C12.3 42 7.18 42 3.86 38.64C0.5 35.3199 0.5 30.2 0.5 21C0.5 11.8 0.5 6.68 3.86 3.36C7.18 0 12.3 0 21.5 0C30.7 0 35.8199 0 39.14 3.32Z" fill="current"/>
<path d="M20.6204 34.2794C19.1404 33.1194 18.0604 31.4394 17.7003 29.4393H12.9004V8.51937C15.4604 9.79938 17.3003 12.6794 17.5404 15.6393L18.2604 21.5193L17.9003 21.4794C17.1404 21.4794 16.4604 22.1994 16.4604 22.9593C16.4604 23.6394 16.9804 24.1994 17.6604 24.3594L18.5404 24.5594C19.9803 21.7994 20.8204 19.1193 20.8204 16.4394C20.8204 14.0394 20.5004 11.6394 20.4604 9.19938C20.4604 8.11938 20.8603 7.11938 21.5404 6.35938C22.2204 7.15938 22.6204 8.11938 22.6204 9.19938C22.6204 11.6394 22.2603 14.0394 22.2603 16.4394C22.2603 19.0794 23.0603 21.7994 24.5403 24.5594L25.4203 24.3594C26.1004 24.1994 26.6203 23.6394 26.6203 22.9593C26.6203 22.2393 25.9403 21.4794 25.1804 21.4794L24.8203 21.5193L25.5403 15.6393C25.9004 12.6794 27.5804 9.79938 30.1803 8.51937V29.4393H25.3004C24.9403 31.3994 23.9004 33.1994 22.3804 34.2794C22.0204 34.5594 21.7004 34.8794 21.5004 35.2794C21.2603 34.8393 20.9803 34.5194 20.6204 34.2794ZM15.1804 22.1994C15.3804 21.3993 15.9404 20.7194 16.6604 20.3193L16.1004 15.4794C15.9004 13.9593 15.3004 12.6393 14.3403 11.5194V22.1594L15.1804 22.1994ZM17.5804 27.9594C17.5804 27.2394 17.7003 26.5593 17.8204 25.8794L17.1404 25.7193C16.1404 25.3994 15.3804 24.6393 15.1403 23.6394H14.3403V27.9594H17.5804ZM20.7404 27.9594C20.7404 27.0794 20.0604 26.2794 19.2204 26.1993C19.0604 26.7594 18.9803 27.3594 18.9803 27.9594H20.7404ZM20.7404 29.4393H19.1404C19.3803 30.5994 19.9404 31.5993 20.7404 32.5194V29.4393ZM23.0204 24.9194C22.4204 23.7594 21.8204 22.5594 21.5004 21.3194C21.1404 22.5594 20.5803 23.7594 19.9803 24.9194C20.5803 25.0794 21.1004 25.4793 21.5004 25.9593C21.9004 25.4793 22.4204 25.0394 23.0204 24.9194ZM24.0204 27.9594C24.0204 27.3594 23.9004 26.7594 23.7804 26.1993C22.9004 26.3193 22.2603 27.0794 22.2603 27.9594H24.0204ZM23.7804 29.4393H22.1804V32.5194C22.9804 31.5993 23.5403 30.5594 23.7804 29.4393ZM28.6204 27.9594V23.6394H27.8203C27.5804 24.6393 26.8203 25.3994 25.8203 25.7193L25.1403 25.8794C25.3004 26.5593 25.3804 27.2394 25.3804 27.9594H28.6204ZM28.6204 22.1994V11.5594C27.7003 12.6393 27.0203 13.9994 26.8604 15.5193L26.3004 20.3594C27.0203 20.7594 27.5804 21.4394 27.7804 22.2393L28.6204 22.1994Z" fill="current"/>
</svg>
