<svg width="37" height="36" viewBox="0 0 37 36" fill="none" xmlns="http://www.w3.org/2000/svg">
<path d="M18.5664 2.8125C15.5626 2.8125 12.6263 3.70323 10.1287 5.37206C7.63112 7.04088 5.6845 9.41284 4.53499 12.188C3.38549 14.9631 3.08472 18.0168 3.67074 20.9629C4.25675 23.909 5.70322 26.6152 7.82723 28.7392C9.95124 30.8632 12.6574 32.3097 15.6035 32.8957C18.5496 33.4817 21.6033 33.1809 24.3784 32.0314C27.1536 30.8819 29.5255 28.9353 31.1944 26.4377C32.8632 23.9402 33.7539 21.0038 33.7539 18C33.7494 13.9734 32.1479 10.113 29.3007 7.26575C26.4534 4.41851 22.593 2.81697 18.5664 2.8125ZM20.2539 29.6902V21.9375H23.0664C23.514 21.9375 23.9432 21.7597 24.2597 21.4432C24.5761 21.1268 24.7539 20.6976 24.7539 20.25C24.7539 19.8024 24.5761 19.3732 24.2597 19.0568C23.9432 18.7403 23.514 18.5625 23.0664 18.5625H20.2539V15.75C20.2539 15.3024 20.4317 14.8732 20.7482 14.5568C21.0646 14.2403 21.4939 14.0625 21.9414 14.0625H24.1914C24.639 14.0625 25.0682 13.8847 25.3847 13.5682C25.7011 13.2518 25.8789 12.8226 25.8789 12.375C25.8789 11.9274 25.7011 11.4982 25.3847 11.1818C25.0682 10.8653 24.639 10.6875 24.1914 10.6875H21.9414C20.5988 10.6875 19.3111 11.2209 18.3617 12.1703C17.4123 13.1197 16.8789 14.4073 16.8789 15.75V18.5625H14.0664C13.6189 18.5625 13.1896 18.7403 12.8732 19.0568C12.5567 19.3732 12.3789 19.8024 12.3789 20.25C12.3789 20.6976 12.5567 21.1268 12.8732 21.4432C13.1896 21.7597 13.6189 21.9375 14.0664 21.9375H16.8789V29.6902C13.9231 29.2635 11.2386 27.7331 9.36566 25.407C7.49272 23.0809 6.57038 20.1317 6.78424 17.1529C6.99811 14.1741 8.33231 11.3869 10.5183 9.35221C12.7044 7.3175 15.58 6.18631 18.5664 6.18631C21.5528 6.18631 24.4284 7.3175 26.6145 9.35221C28.8005 11.3869 30.1347 14.1741 30.3486 17.1529C30.5625 20.1317 29.6401 23.0809 27.7672 25.407C25.8942 27.7331 23.2097 29.2635 20.2539 29.6902Z" fill="#FD9A19"/>
</svg>
