<svg width="31" height="32" viewBox="0 0 31 32" fill="none" xmlns="http://www.w3.org/2000/svg">
<path d="M15.5664 9.25C14.2314 9.25 12.9263 9.64588 11.8163 10.3876C10.7063 11.1293 9.84111 12.1835 9.33022 13.4169C8.81933 14.6503 8.68566 16.0075 8.94611 17.3169C9.20656 18.6262 9.84943 19.829 10.7934 20.773C11.7374 21.717 12.9402 22.3599 14.2495 22.6203C15.5589 22.8808 16.9161 22.7471 18.1495 22.2362C19.3829 21.7253 20.4371 20.8601 21.1788 19.7501C21.9205 18.6401 22.3164 17.335 22.3164 16C22.3145 14.2104 21.6028 12.4946 20.3373 11.2291C19.0719 9.96362 17.356 9.25186 15.5664 9.25ZM15.5664 19.375C14.8989 19.375 14.2464 19.1771 13.6914 18.8062C13.1363 18.4354 12.7038 17.9083 12.4483 17.2916C12.1929 16.6749 12.126 15.9963 12.2563 15.3416C12.3865 14.6869 12.7079 14.0855 13.1799 13.6135C13.6519 13.1415 14.2533 12.8201 14.908 12.6898C15.5627 12.5596 16.2413 12.6265 16.858 12.8819C17.4747 13.1374 18.0018 13.5699 18.3726 14.125C18.7435 14.68 18.9414 15.3325 18.9414 16C18.9414 16.8951 18.5858 17.7536 17.9529 18.3865C17.32 19.0194 16.4615 19.375 15.5664 19.375ZM22.3164 0.8125H8.81641C6.57944 0.815105 4.43484 1.70489 2.85307 3.28666C1.2713 4.86844 0.381511 7.01304 0.378906 9.25V22.75C0.381511 24.987 1.2713 27.1316 2.85307 28.7133C4.43484 30.2951 6.57944 31.1849 8.81641 31.1875H22.3164C24.5534 31.1849 26.698 30.2951 28.2797 28.7133C29.8615 27.1316 30.7513 24.987 30.7539 22.75V9.25C30.7513 7.01304 29.8615 4.86844 28.2797 3.28666C26.698 1.70489 24.5534 0.815105 22.3164 0.8125ZM27.3789 22.75C27.3789 24.0927 26.8455 25.3803 25.8961 26.3297C24.9467 27.2791 23.6591 27.8125 22.3164 27.8125H8.81641C7.47375 27.8125 6.18608 27.2791 5.23668 26.3297C4.28728 25.3803 3.75391 24.0927 3.75391 22.75V9.25C3.75391 7.90734 4.28728 6.61967 5.23668 5.67027C6.18608 4.72087 7.47375 4.1875 8.81641 4.1875H22.3164C23.6591 4.1875 24.9467 4.72087 25.8961 5.67027C26.8455 6.61967 27.3789 7.90734 27.3789 9.25V22.75ZM25.1289 8.6875C25.1289 9.13251 24.9969 9.56752 24.7497 9.93753C24.5025 10.3075 24.1511 10.5959 23.7399 10.7662C23.3288 10.9365 22.8764 10.9811 22.44 10.8943C22.0035 10.8075 21.6026 10.5932 21.2879 10.2785C20.9732 9.96382 20.759 9.56291 20.6721 9.12645C20.5853 8.69 20.6299 8.2376 20.8002 7.82646C20.9705 7.41533 21.2589 7.06393 21.6289 6.81669C21.9989 6.56946 22.4339 6.4375 22.8789 6.4375C23.4756 6.4375 24.0479 6.67455 24.4699 7.09651C24.8919 7.51847 25.1289 8.09076 25.1289 8.6875Z" fill="#FD9A19"/>
</svg>
