<svg width="33" height="31" viewBox="0 0 33 31" fill="none" xmlns="http://www.w3.org/2000/svg">
<path d="M32.2438 1.25618C31.992 1.03898 31.6856 0.894606 31.3578 0.838604C31.0299 0.782602 30.693 0.817093 30.3834 0.938364L1.88429 12.0913C1.36703 12.2928 0.92918 12.6568 0.636635 13.1286C0.344089 13.6003 0.212672 14.1543 0.262157 14.7072C0.311642 15.2601 0.539353 15.782 0.911025 16.1943C1.2827 16.6067 1.77822 16.8871 2.32304 16.9935L9.25304 18.3534V26.1243C9.25303 26.685 9.42059 27.2329 9.73422 27.6976C10.0478 28.1624 10.4932 28.5228 11.0132 28.7326C11.5331 28.9424 12.1039 28.992 12.6522 28.875C13.2006 28.758 13.7014 28.4799 14.0905 28.0762L17.2785 24.7701L22.521 29.3587C22.8867 29.6803 23.3297 29.9014 23.8065 30.0005C24.2833 30.0995 24.7777 30.073 25.2412 29.9236C25.7047 29.7742 26.1215 29.507 26.4507 29.1481C26.78 28.7893 27.0104 28.3511 27.1194 27.8765L32.8316 3.04914C32.906 2.72509 32.8905 2.38689 32.7869 2.07096C32.6834 1.75503 32.4956 1.47333 32.2438 1.25618ZM19.2951 8.90055L10.5496 15.1682L5.70789 14.219L19.2951 8.90055ZM12.628 24.7265V20.6891L14.7374 22.5384L12.628 24.7265ZM24.0412 26.2059L13.6518 17.0976L28.6016 6.38477L24.0412 26.2059Z" fill="#FD9A19"/>
</svg>
